<?xml version="1.0" encoding="utf-8"?>
<!-- Generator: Adobe Illustrator 16.0.0, SVG Export Plug-In . SVG Version: 6.00 Build 0)  -->
<!DOCTYPE svg PUBLIC "-//W3C//DTD SVG 1.1//EN" "http://www.w3.org/Graphics/SVG/1.1/DTD/svg11.dtd">
<svg version="1.1" id="bigplay-gradient.fw-Page_x25_201"
	 xmlns="http://www.w3.org/2000/svg" xmlns:xlink="http://www.w3.org/1999/xlink" x="0px" y="0px" width="100px" height="200px"
	 viewBox="0 0 100 200" enable-background="new 0 0 100 200" xml:space="preserve">
<rect display="none" fill="#232323" stroke="#000000" stroke-miterlimit="10" width="100" height="200"/>
<path fill="none" d="z"/>
<g id="Background">
</g>
<path fill="#FFFFFF" stroke="#FFFFFF" d="M50,88.5c-21.229,0-38.5-17.271-38.5-38.5S28.771,11.5,50,11.5
	c21.229,0,38.5,17.271,38.5,38.5S71.229,88.5,50,88.5z M50,13.5c-20.126,0-36.5,16.374-36.5,36.5S29.874,86.5,50,86.5
	S86.5,70.126,86.5,50S70.126,13.5,50,13.5z"/>
<path fill="#FFFFFF" d="M60.26,47.835l-16.02-9.25c-0.773-0.446-1.727-0.446-2.5,0c-0.773,0.447-1.25,1.272-1.25,2.165v18.499
	c0,0.893,0.477,1.718,1.25,2.165c0.387,0.223,0.818,0.335,1.25,0.335s0.863-0.112,1.25-0.335l16.02-9.249
	c0.773-0.446,1.25-1.272,1.25-2.165S61.033,48.282,60.26,47.835z"/>
<path fill="#FFFFFF" stroke="#FFFFFF" d="M50,190c-21.229,0-38.5-17.271-38.5-38.5c0-21.229,17.271-38.5,38.5-38.5
	c21.229,0,38.5,17.271,38.5,38.5C88.5,172.729,71.229,190,50,190z M50,115c-20.126,0-36.5,16.373-36.5,36.5
	c0,20.125,16.374,36.5,36.5,36.5s36.5-16.375,36.5-36.5C86.5,131.373,70.126,115,50,115z"/>
<path fill="#8D84E4" d="M60.26,149.334l-16.02-9.249c-0.773-0.446-1.727-0.446-2.5,0s-1.25,1.272-1.25,2.165v18.498
	c0,0.894,0.477,1.719,1.25,2.166c0.387,0.223,0.818,0.334,1.25,0.334s0.863-0.111,1.25-0.334l16.02-9.25
	c0.773-0.445,1.25-1.271,1.25-2.164C61.51,150.606,61.033,149.781,60.26,149.334z"/>
<path fill="none" d="z"/>
</svg>
